<?xml version="1.0" encoding="utf-8"?>
<!-- Generator: Adobe Illustrator 23.0.1, SVG Export Plug-In . SVG Version: 6.00 Build 0)  -->
<svg version="1.1" id="Layer_1" xmlns="http://www.w3.org/2000/svg" xmlns:xlink="http://www.w3.org/1999/xlink" x="0px" y="0px"
	 viewBox="0 0 141.73 283.46" style="enable-background:new 0 0 141.73 283.46;" xml:space="preserve">
<style type="text/css">
	.st0{fill:#010101;stroke:#010101;stroke-width:0.25;stroke-miterlimit:10;}
</style>
<path class="st0" d="M56.15,142.08c0,0,0.38-3.35,1.97-3.93c1.52-0.56,2.24-0.46,2.24-0.46l25.71-0.44c0,0-8.78,17.73-49.27,61.81
	h34.94l0.54-8.42c0,0,0-2.51-3.58-5.02l25.26-29.56l0.72,43h11.47v4.84H94.5v12.9c0,0,0.72,9.5,11.65,8.6v6.79l-44.84,0.2v-5.38
	c0,0,12.03-1.97,11.22-9.85v-5.02c0,0,0.73-7.7-8.45-7.88l-33.75,0.54c0,0-1.44-1.89,0.02-4.12
	C37.54,189.74,54.9,170.3,56.15,142.08z"/>
<path class="st0" d="M56.15,44.35c0,0,0.38-3.35,1.97-3.93c1.52-0.56,2.24-0.46,2.24-0.46l25.71-0.44c0,0-8.78,17.73-49.27,61.81
	h34.94l0.54-8.42c0,0,0-2.51-3.58-5.02l25.26-29.56l0.72,43h11.47v4.84H94.5v12.9c0,0,0.72,9.5,11.65,8.6v6.79l-44.84,0.2v-5.38
	c0,0,12.03-1.97,11.22-9.85v-5.02c0,0,0.73-7.7-8.45-7.88l-33.75,0.54c0,0-1.44-1.89,0.02-4.12C37.54,92.01,54.9,72.57,56.15,44.35z
	"/>
</svg>
